<svg width="31" height="32" viewBox="0 0 31 32" fill="none" xmlns="http://www.w3.org/2000/svg">
<path fill-rule="evenodd" clip-rule="evenodd" d="M20.4768 21.89C18.3029 23.8495 15.4251 25.0417 12.2708 25.0417C5.49862 25.0417 0 19.543 0 12.7708C0 5.99862 5.49862 0.5 12.2708 0.5C19.043 0.5 24.5417 5.99862 24.5417 12.7708C24.5417 15.9251 23.3495 18.8029 21.39 20.9768L31 30.5868L30.0868 31.5L20.4768 21.89ZM12.2708 1.79167C18.33 1.79167 23.25 6.71162 23.25 12.7708C23.25 18.83 18.33 23.75 12.2708 23.75C6.21162 23.75 1.29167 18.83 1.29167 12.7708C1.29167 6.71162 6.21162 1.79167 12.2708 1.79167Z" fill="#41F0D1"/>
</svg>
