<svg width="223" height="54" viewBox="0 0 223 54" fill="none" xmlns="http://www.w3.org/2000/svg">
<path d="M71.0116 41V13.6H78.7316L84.8516 35L90.9716 13.6H98.7316V41H94.2516V18.52H93.6516L87.1716 39.88H82.5316L76.0516 18.52H75.4516V41H71.0116ZM102.636 21H106.916L111.156 37.28H112.236L116.476 21H120.796L113.196 49.6H108.916L111.316 41H107.876L102.636 21ZM133.473 13.6H143.873C146.673 13.6 148.766 14.1733 150.153 15.32C151.539 16.44 152.233 18.24 152.233 20.72C152.233 22.3467 151.966 23.6267 151.432 24.56C150.926 25.4933 150.113 26.2667 148.993 26.88C151.606 27.8933 152.912 30.0133 152.912 33.24C152.912 38.4133 150.006 41 144.193 41H133.473V13.6ZM143.873 29.04H137.913V37.16H143.953C145.419 37.16 146.513 36.8533 147.233 36.24C147.979 35.6267 148.353 34.5733 148.353 33.08C148.353 31.5867 147.926 30.5467 147.073 29.96C146.219 29.3467 145.153 29.04 143.873 29.04ZM143.633 17.44H137.913V25.28H143.793C146.406 25.28 147.713 23.9333 147.713 21.24C147.713 18.7067 146.353 17.44 143.633 17.44ZM157.685 41V12.68H162.045V41H157.685ZM168.642 23.16C170.029 21.4267 172.322 20.56 175.522 20.56C178.722 20.56 181.002 21.4267 182.362 23.16C183.749 24.8933 184.442 27.4933 184.442 30.96C184.442 34.4267 183.775 37.04 182.442 38.8C181.109 40.56 178.802 41.44 175.522 41.44C172.242 41.44 169.935 40.56 168.602 38.8C167.269 37.04 166.602 34.4267 166.602 30.96C166.602 27.4933 167.282 24.8933 168.642 23.16ZM171.922 36.16C172.535 37.2267 173.735 37.76 175.522 37.76C177.309 37.76 178.509 37.2267 179.122 36.16C179.735 35.0933 180.042 33.3467 180.042 30.92C180.042 28.4933 179.709 26.7733 179.042 25.76C178.402 24.7467 177.229 24.24 175.522 24.24C173.815 24.24 172.629 24.7467 171.962 25.76C171.322 26.7733 171.002 28.4933 171.002 30.92C171.002 33.3467 171.309 35.0933 171.922 36.16ZM206.253 43.72C206.253 48.0933 203.093 50.28 196.773 50.28C193.733 50.28 191.479 49.8667 190.013 49.04C188.546 48.2133 187.813 46.7067 187.813 44.52C187.813 43.5333 188.053 42.68 188.533 41.96C189.013 41.2667 189.786 40.5067 190.853 39.68C189.973 39.0933 189.533 38.12 189.533 36.76C189.533 36.2267 189.893 35.36 190.613 34.16L190.973 33.56C189.053 32.4133 188.093 30.4133 188.093 27.56C188.093 25.16 188.813 23.4 190.253 22.28C191.693 21.16 193.639 20.6 196.093 20.6C197.266 20.6 198.426 20.7333 199.573 21L200.173 21.12L206.373 20.96V24.48L203.053 24.28C203.773 25.2133 204.133 26.3067 204.133 27.56C204.133 30.1733 203.466 31.9867 202.133 33C200.826 33.9867 198.773 34.48 195.973 34.48C195.279 34.48 194.693 34.4267 194.213 34.32C193.839 35.2267 193.653 35.9333 193.653 36.44C193.653 36.92 193.893 37.2533 194.373 37.44C194.879 37.6267 196.079 37.7333 197.973 37.76C201.146 37.7867 203.319 38.2133 204.493 39.04C205.666 39.8667 206.253 41.4267 206.253 43.72ZM192.093 44.12C192.093 45.0533 192.466 45.72 193.213 46.12C193.959 46.52 195.239 46.72 197.053 46.72C200.279 46.72 201.893 45.8 201.893 43.96C201.893 42.92 201.599 42.2533 201.013 41.96C200.453 41.6933 199.319 41.5467 197.613 41.52L193.693 41.28C193.106 41.76 192.693 42.2 192.453 42.6C192.213 43.0267 192.093 43.5333 192.093 44.12ZM192.413 27.56C192.413 28.7867 192.706 29.6933 193.293 30.28C193.879 30.84 194.826 31.12 196.133 31.12C197.439 31.12 198.373 30.84 198.933 30.28C199.519 29.6933 199.813 28.7867 199.813 27.56C199.813 26.3333 199.519 25.44 198.933 24.88C198.346 24.2933 197.399 24 196.093 24C193.639 24 192.413 25.1867 192.413 27.56Z" fill="white"/>
<rect x="8.71899" y="5.93146" width="43.5955" height="47.7094" fill="#AAAAAA"/>
<line x1="11.1711" y1="12.6681" x2="32.424" y2="12.6681" stroke="#656565" stroke-width="2"/>
<line x1="11.7163" y1="23.2415" x2="32.4242" y2="23.2415" stroke="#656565" stroke-width="2"/>
<line x1="11.4438" y1="33.0413" x2="32.4242" y2="33.0413" stroke="#656565" stroke-width="2"/>
<rect x="1" y="1" width="41.5955" height="45.7094" stroke="#656565" stroke-width="2"/>
</svg>
