<svg width="637" height="627" viewBox="0 0 637 627" fill="none" xmlns="http://www.w3.org/2000/svg">
<g clip-path="url(#clip0)">
<path d="M575.362 309.868C573.405 309.868 571.493 309.285 569.866 308.193C568.24 307.1 566.972 305.548 566.223 303.731C565.474 301.914 565.279 299.915 565.66 297.987C566.042 296.058 566.984 294.286 568.367 292.896C569.751 291.505 571.513 290.559 573.432 290.175C575.351 289.791 577.34 289.988 579.147 290.741C580.955 291.493 582.499 292.768 583.586 294.403C584.673 296.038 585.253 297.96 585.253 299.926C585.25 302.562 584.207 305.089 582.353 306.953C580.499 308.817 577.984 309.866 575.362 309.868ZM575.362 291.641C573.731 291.641 572.138 292.127 570.782 293.037C569.427 293.948 568.37 295.242 567.746 296.756C567.122 298.269 566.959 299.935 567.277 301.543C567.595 303.15 568.38 304.626 569.533 305.785C570.686 306.943 572.155 307.733 573.754 308.052C575.353 308.372 577.01 308.208 578.516 307.581C580.022 306.954 581.31 305.892 582.216 304.529C583.121 303.167 583.605 301.565 583.605 299.926C583.602 297.73 582.733 295.624 581.188 294.07C579.642 292.517 577.547 291.643 575.362 291.641Z" fill="#696969"/>
<path d="M21.4318 173.162H0V151.62H21.4318V173.162ZM1.6486 171.505H19.7832V153.277H1.6486V171.505Z" fill="#696969"/>
<path d="M340.436 24.8559H319.004V3.31421H340.436V24.8559ZM320.653 23.1988H338.788V4.97126H320.653V23.1988Z" fill="#696969"/>
<path d="M251 134.735H97.6797V259.842H251V134.735Z" fill="#656565"/>
<path d="M522.195 297.954H97.6797V311.211H522.195V297.954Z" fill="#717171"/>
<path d="M241.108 253.214H86.1394V126.45H241.108V253.214ZM87.788 251.557H239.459V128.107H87.788V251.557Z" fill="#696969"/>
<path d="M460.372 169.119H311.998V182.375H460.372V169.119Z" fill="#656565"/>
<path opacity="0.3" d="M522.195 204.745H311.998V218.002H522.195V204.745Z" fill="#656565"/>
<path d="M450.48 175.747H300.458V160.833H450.48V175.747ZM302.106 174.09H448.832V162.491H302.106V174.09Z" fill="#696969"/>
<path d="M512.303 211.374H300.458V196.46H512.303V211.374ZM302.106 209.716H510.654V198.117H302.106V209.716Z" fill="#696969"/>
<path d="M512.303 304.583H86.1394V289.669H512.303V304.583ZM87.788 302.926H510.654V291.326H87.788V302.926Z" fill="#696969"/>
<path d="M522.195 339.381H97.6797V352.637H522.195V339.381Z" fill="#717171"/>
<path d="M512.303 346.009H86.1394V331.095H512.303V346.009ZM87.788 344.352H510.654V332.752H87.788V344.352Z" fill="#696969"/>
<path d="M522.195 380.807H97.6797V394.063H522.195V380.807Z" fill="#717171"/>
<path d="M512.303 387.435H86.1394V372.522H512.303V387.435ZM87.788 385.778H510.654V374.179H87.788V385.778Z" fill="#696969"/>
<path d="M522.195 422.233H97.6797V435.49H522.195V422.233Z" fill="#717171"/>
<path d="M512.303 428.861H86.1394V413.948H512.303V428.861ZM87.788 427.204H510.654V415.605H87.788V427.204Z" fill="#696969"/>
<path d="M522.195 463.659H97.6797V476.916H522.195V463.659Z" fill="#717171"/>
<path d="M512.303 470.288H86.1394V455.374H512.303V470.288ZM87.788 468.631H510.654V457.031H87.788V468.631Z" fill="#696969"/>
<path d="M522.195 505.086H97.6797V518.342H522.195V505.086Z" fill="#717171"/>
<path d="M512.303 511.714H86.1394V496.8H512.303V511.714ZM87.788 510.057H510.654V498.457H87.788V510.057Z" fill="#696969"/>
<path d="M547.748 591.677H61.8225V53.5391H547.748V591.677ZM63.4711 590.02H546.099V55.1961H63.4711V590.02Z" fill="#696969"/>
<path d="M51.4362 601.609C51.4072 601.619 51.3795 601.633 51.3538 601.65C52.3347 599.521 53.2496 597.367 54.0822 595.179C54.1811 594.922 54.2718 594.657 54.3707 594.4C54.3625 594.467 54.3625 594.533 54.3542 594.608C54.3295 595.022 54.2965 595.436 54.2635 595.859C54.2141 596.513 54.1728 597.176 54.1646 597.839C54.1564 598.046 54.1564 598.245 54.1564 598.452C54.159 599.259 54.2419 600.064 54.4037 600.855H54.3707C54.1646 600.871 53.975 600.879 53.7772 600.913C52.9998 601.017 52.2417 601.235 51.5269 601.559C51.495 601.572 51.4646 601.589 51.4362 601.609Z" fill="url(#paint0_linear)"/>
<path d="M67.0443 276.181C67.1325 279.641 68.2988 282.993 68.4817 286.446C58.3445 286.953 48.3461 282.011 38.3098 283.525C41.1151 281.7 42.6156 278.412 43.4981 275.174C44.6228 270.996 44.9585 266.644 44.4879 262.342C44.461 262.103 44.4189 261.866 44.3619 261.633C43.9899 259.941 43.0253 257.546 43.2838 256.215C43.6243 254.453 45.2759 254.802 46.7637 254.903C51.3007 255.251 55.8165 255.836 60.2925 256.658C61.4587 256.861 72.8189 259.713 72.9891 259.415C70.9979 262.626 69.3497 266.039 68.0718 269.598C67.3627 271.718 67.0153 273.944 67.0443 276.181Z" fill="#A0616A"/>
<path d="M167.293 265.492C166.422 266.686 165.379 267.743 164.198 268.628C163.429 269.262 162.641 269.908 161.815 270.491C160.344 271.632 158.592 272.348 156.746 272.563C154.332 272.728 149.207 271.302 147.706 269.224C147.074 268.179 146.772 266.966 146.842 265.745C146.868 264.089 147.148 262.448 147.675 260.879C148.615 258.325 149.933 255.928 151.583 253.769C153.329 251.33 155.271 248.928 157.869 247.452C158.734 246.986 159.627 246.573 160.541 246.216C162.118 245.57 163.687 244.917 165.263 244.271C165.532 244.139 165.823 244.061 166.121 244.043C167.388 244.055 167.621 246.001 166.902 247.052C165.465 249.169 162.231 249.758 161.323 252.16C162.088 252.183 162.826 252.45 163.431 252.921C164.035 253.393 164.476 254.044 164.69 254.783C164.725 255.175 164.884 255.546 165.144 255.841C165.56 256.177 166.209 255.987 166.682 256.24C167.52 256.69 167.155 257.945 167.243 258.895C167.449 259.719 167.738 260.52 168.106 261.284C168.284 262.003 168.304 262.752 168.163 263.478C168.023 264.205 167.726 264.892 167.293 265.492Z" fill="#A0616A"/>
<path d="M27.5583 612.371C28.3388 611.587 29.6135 611.72 30.7032 611.893C36.5523 612.823 42.4633 613.304 48.385 613.331C49.1264 609.692 46.9743 606.155 46.2809 602.507C46.1807 601.565 45.9448 600.644 45.5806 599.77C44.7467 598.162 42.8656 597.426 41.1002 597.052C37.9137 596.377 32.9327 595.185 31.153 598.423C29.0177 602.308 28.3345 608.047 27.5583 612.371Z" fill="#65617D"/>
<path d="M92.3429 598.626C89.941 600.273 86.9592 600.787 84.0718 601.16C81.1782 601.528 78.2089 601.813 75.5927 603.106C73.3358 604.227 71.4319 606.065 69.0426 606.87C66.8206 607.482 64.4805 607.519 62.2404 606.977C59.5548 606.47 56.6927 605.488 55.2428 603.157C53.9504 601.084 54.0891 598.455 54.2657 596.015C54.4737 593.259 54.6775 590.498 54.8771 587.733C54.8672 587.032 55.0435 586.341 55.3878 585.731C57.3295 582.886 62.0513 586.922 64.5793 586.916C68.5824 586.91 72.8819 584.73 75.7692 582.062C76.022 581.797 76.3158 581.574 76.6392 581.403C77.7803 580.89 78.9213 581.841 79.9363 582.671C80.0497 582.766 80.1632 582.861 80.2767 582.949C82.6156 584.812 85.755 585.193 88.6424 585.947C91.536 586.701 94.6314 588.221 95.5265 591.086C95.5846 591.266 95.6309 591.45 95.6652 591.637C96.1885 594.273 94.5935 597.08 92.3429 598.626Z" fill="#696969"/>
<path d="M92.3429 598.626C89.941 600.273 86.9592 600.787 84.0718 601.16C81.1782 601.528 78.2089 601.813 75.5927 603.106C73.3358 604.227 71.4319 606.065 69.0426 606.87C66.8206 607.482 64.4805 607.519 62.2404 606.977C59.5548 606.47 56.6927 605.488 55.2428 603.157C53.9504 601.084 54.0891 598.455 54.2657 596.015C54.4737 593.259 54.6775 590.498 54.8771 587.733C54.8672 587.032 55.0435 586.341 55.3878 585.731C57.3295 582.886 62.0513 586.922 64.5793 586.916C68.5824 586.91 72.8819 584.73 75.7692 582.062C76.022 581.797 76.3158 581.574 76.6392 581.403C77.7803 580.89 78.9213 581.841 79.9363 582.671C80.0497 582.766 80.1632 582.861 80.2767 582.949C82.6156 584.812 85.755 585.193 88.6424 585.947C91.536 586.701 94.6314 588.221 95.5265 591.086C95.5846 591.266 95.6309 591.45 95.6652 591.637C96.1885 594.273 94.5935 597.08 92.3429 598.626Z" fill="#2F2E41"/>
<path d="M92.3429 599.553C89.941 601.201 86.9591 601.714 84.0718 602.088C81.1782 602.455 78.2089 602.741 75.5927 604.033C73.3358 605.155 71.4319 606.992 69.0426 607.797C66.8206 608.41 64.4805 608.447 62.2404 607.905C59.3822 607.297 56.8721 605.594 55.2428 603.157C53.9504 601.084 54.0891 598.455 54.2657 596.015C54.4737 593.259 54.6775 590.498 54.8771 587.733C54.8672 587.032 55.0435 586.341 55.3878 585.731C57.3295 582.886 62.0513 586.922 64.5793 586.916C68.5824 586.91 72.8819 584.73 75.7692 582.062C76.022 581.797 76.3158 581.574 76.6392 581.403C77.7803 580.89 78.9213 581.841 79.9363 582.671C79.2688 584.738 78.3228 586.704 77.1246 588.513C76.1575 590.038 74.8639 591.328 73.3381 592.287C71.8124 593.246 70.0929 593.851 68.3051 594.057C66.5147 594.19 64.6802 593.836 62.9466 594.298C61.2192 594.761 59.6053 596.541 60.2168 598.233C60.8157 599.881 62.9339 600.242 64.6802 600.337C67.1262 600.47 69.6353 600.59 71.9553 599.823C73.3737 599.348 74.6723 598.563 76.053 597.986C81.9221 595.54 89.3358 596.909 94.1838 592.777C94.6437 592.355 95.1393 591.973 95.6652 591.637C96.9344 594.308 94.5935 598.007 92.3429 599.553Z" fill="#B3B3B3"/>
<path opacity="0.05" d="M92.3429 599.553C89.941 601.201 86.9591 601.714 84.0718 602.088C81.1782 602.455 78.2089 602.741 75.5927 604.033C73.3358 605.155 71.4319 606.992 69.0426 607.797C66.8206 608.41 64.4805 608.447 62.2404 607.905C59.3822 607.297 56.8721 605.594 55.2428 603.157C53.9504 601.084 54.0891 598.455 54.2657 596.015C54.4737 593.259 54.6775 590.498 54.8771 587.733C54.8672 587.032 55.0435 586.341 55.3878 585.731C57.3295 582.886 62.0513 586.922 64.5793 586.916C68.5824 586.91 72.8819 584.73 75.7692 582.062C76.022 581.797 76.3158 581.574 76.6392 581.403C77.7803 580.89 78.9213 581.841 79.9363 582.671C79.2688 584.738 78.3228 586.704 77.1246 588.513C76.1575 590.038 74.8639 591.328 73.3381 592.287C71.8124 593.246 70.0929 593.851 68.3051 594.057C66.5147 594.19 64.6802 593.836 62.9466 594.298C61.2192 594.761 59.6053 596.541 60.2168 598.233C60.8157 599.881 62.9339 600.242 64.6802 600.337C67.1262 600.47 69.6353 600.59 71.9553 599.823C73.3737 599.348 74.6723 598.563 76.053 597.986C81.9221 595.54 89.3358 596.909 94.1838 592.777C94.6437 592.355 95.1393 591.973 95.6652 591.637C96.9344 594.308 94.5935 598.007 92.3429 599.553Z" fill="#696969"/>
<path d="M28.6561 419.031C26.7853 428.26 28.5592 437.858 33.6026 445.797C34.9778 447.938 36.5893 449.949 37.6231 452.276C38.3006 453.936 38.8258 455.655 39.1921 457.411L43.6477 475.948C44.8505 480.953 46.0621 486.054 45.7008 491.189C45.4491 494.767 44.5517 498.791 46.7458 501.62C47.2749 502.16 47.7216 502.776 48.0714 503.448C48.2901 504.235 48.2977 505.066 48.0932 505.857C45.839 519.315 44.1673 533.385 48.2391 546.405C51.9295 558.205 52.1402 571.281 55.2782 583.242C55.6667 584.723 56.1111 586.284 57.2273 587.327C58.0662 588.037 59.0726 588.517 60.1498 588.723C64.774 589.829 69.6572 588.533 73.97 586.524C77.0011 585.113 80.2636 582.637 80.0046 579.29C79.8814 577.697 78.956 576.301 78.3278 574.834C77.0959 571.956 76.9969 568.742 76.6645 565.627C75.8298 557.805 73.4308 550.253 71.6176 542.601C69.8045 534.949 68.5728 526.952 70.1062 519.238C73.2425 503.283 78.2625 487.76 85.0598 473C85.3554 472.215 85.8236 471.508 86.4294 470.93C87.1111 470.541 87.7596 470.096 88.3681 469.6C88.8388 468.868 89.1417 468.04 89.2549 467.176C89.9294 464.734 91.9327 462.933 93.2757 460.789C96.6666 455.374 95.592 448.434 95.4664 442.037C95.3443 435.816 96.2354 429.539 95.2209 423.401C94.2063 417.264 90.7081 410.99 84.8212 409.067C81.9052 408.114 78.7525 408.33 75.7012 408.634C59.5355 410.242 43.8273 413.193 28.6561 419.031Z" fill="#2F2E41"/>
<path opacity="0.1" d="M28.6561 419.031C26.7853 428.26 28.5592 437.858 33.6026 445.797C34.9778 447.938 36.5893 449.949 37.6231 452.276C38.3006 453.936 38.8258 455.655 39.1921 457.411L43.6477 475.948C44.8505 480.953 46.0621 486.054 45.7008 491.189C45.4491 494.767 44.5517 498.791 46.7458 501.62C47.2749 502.16 47.7216 502.776 48.0714 503.448C48.2901 504.235 48.2977 505.066 48.0932 505.857C45.839 519.315 44.1673 533.385 48.2391 546.405C51.9295 558.205 52.1402 571.281 55.2782 583.242C55.6667 584.723 56.1111 586.284 57.2273 587.327C58.0662 588.037 59.0726 588.517 60.1498 588.723C64.774 589.829 69.6572 588.533 73.97 586.524C77.0011 585.113 80.2636 582.637 80.0046 579.29C79.8814 577.697 78.956 576.301 78.3278 574.834C77.0959 571.956 76.9969 568.742 76.6645 565.627C75.8298 557.805 73.4308 550.253 71.6176 542.601C69.8045 534.949 68.5728 526.952 70.1062 519.238C73.2425 503.283 78.2625 487.76 85.0598 473C85.3554 472.215 85.8236 471.508 86.4294 470.93C87.1111 470.541 87.7596 470.096 88.3681 469.6C88.8388 468.868 89.1417 468.04 89.2549 467.176C89.9294 464.734 91.9327 462.933 93.2757 460.789C96.6666 455.374 95.592 448.434 95.4664 442.037C95.3443 435.816 96.2354 429.539 95.2209 423.401C94.2063 417.264 90.7081 410.99 84.8212 409.067C81.9052 408.114 78.7525 408.33 75.7012 408.634C59.5355 410.242 43.8273 413.193 28.6561 419.031Z" fill="#696969"/>
<path d="M94.499 458.045C94.4511 460.462 94.1789 462.87 93.6857 465.237C90.8362 481.3 87.7997 497.329 84.5761 513.324C84.2925 514.712 84.015 516.099 83.6431 517.462C82.4421 521.913 80.3411 526.067 77.4714 529.666C64.0371 546.496 62.8771 570.935 55.5895 591.231C55.0978 592.606 54.6061 593.981 54.0828 595.337C52.7658 598.776 51.2653 602.142 49.5879 605.419C49.3919 605.896 49.0719 606.312 48.6612 606.622C48.2091 606.851 47.703 606.95 47.1987 606.908C40.6412 606.945 34.1633 605.465 28.2672 602.58C27.4255 602.268 26.7156 601.675 26.2562 600.901C26.0301 600.283 25.9565 599.62 26.0418 598.968C26.2436 594.944 26.4894 590.775 28.3996 587.239C29.6671 585.124 31.2391 583.208 33.0647 581.555C33.6321 568.927 34.874 556.273 37.6352 543.942C39.0536 537.637 40.8061 531.263 44.45 525.934C47.1355 521.999 50.9875 518.114 50.5147 513.368C50.3066 511.284 49.4366 508.686 51.1262 507.463C51.8637 506.924 52.9543 506.855 53.4523 506.088C53.653 505.727 53.7654 505.323 53.7802 504.909C54.1273 501.652 53.9248 498.359 53.1813 495.17C52.5669 493.086 52.0847 490.966 51.7376 488.821C51.5232 486.654 51.8889 484.309 53.3263 482.687C53.4145 478.353 53.2947 473.854 53.383 469.526C53.5528 467.06 53.3488 464.581 52.7777 462.176C52.45 461.042 51.9519 459.958 51.6997 458.799C50.7983 454.636 53.0489 449.649 50.3696 446.347C49.2538 444.979 47.5328 444.294 46.0701 443.306C43.1513 441.348 41.2348 438.142 40.1694 434.777C39.224 431.37 38.6636 427.867 38.4988 424.334C38.4117 423.586 38.4033 422.829 38.4736 422.079C38.5208 421.69 38.6227 421.311 38.7762 420.951C39.6084 419.069 41.8464 418.34 43.8384 417.859C56.499 414.807 69.4761 413.281 82.4957 413.315C87.312 410.02 90.0228 411.199 92.0654 414.69C93.1934 416.822 94.1058 419.061 94.7888 421.375C95.7218 424.208 95.7785 440.062 96.6863 442.907C97.8653 446.607 94.4548 454.16 94.499 458.045Z" fill="#2F2E41"/>
<path d="M7.41689 313.774C7.05899 316.269 8.2523 318.72 8.38425 321.237C8.49953 323.436 7.80312 325.584 7.4047 327.749C5.84968 336.2 8.83729 344.76 11.8778 352.793C12.456 354.097 12.8149 355.489 12.9397 356.911C13.021 359.533 11.5187 361.935 11.1073 364.525C10.2428 369.968 14.237 375.088 14.3198 380.599C14.3579 383.136 13.5629 385.719 14.1945 388.176C14.616 389.815 15.6343 391.224 16.3568 392.754C17.6372 395.465 17.9808 398.541 19.2029 401.279C21.4115 406.227 26.1564 409.457 30.672 412.426C33.2409 411.565 36.0184 410.543 37.4287 408.219C38.0478 407.074 38.4478 405.823 38.6081 404.53C39.5844 398.894 39.5506 393.136 39.5139 387.414C39.5965 382.491 39.3361 377.568 38.7348 372.682C37.8227 366.466 35.8162 360.472 34.3766 354.357C32.561 346.646 31.6307 338.678 28.803 331.28C26.318 324.78 22.4475 318.944 18.3735 313.355C16.819 311.223 15.5918 308.174 12.5748 308.667C11.2983 308.885 10.1193 309.492 9.1969 310.405C8.27451 311.319 7.65321 312.495 7.41689 313.774Z" fill="#656565"/>
<path d="M62.4887 269.639C75.4176 269.639 85.8985 259.104 85.8985 246.109C85.8985 233.114 75.4176 222.579 62.4887 222.579C49.5598 222.579 39.0789 233.114 39.0789 246.109C39.0789 259.104 49.5598 269.639 62.4887 269.639Z" fill="#A0616A"/>
<path d="M76.1121 284.628C75.0915 285.815 73.722 287.123 72.2084 286.74C71.6613 286.552 71.1483 286.276 70.6893 285.923C67.9907 284.174 64.6784 283.764 61.5036 283.283C55.1045 282.314 48.7826 280.886 42.5865 279.009C40.7881 278.351 38.9024 277.965 36.9912 277.865C33.0235 277.886 29.5071 280.537 27.0207 283.645C24.5342 286.753 22.7726 290.389 20.3327 293.534C18.5944 295.775 16.5242 297.749 14.9007 300.076C10.8022 305.948 9.9213 313.61 10.9794 320.705C12.0375 327.799 14.8574 334.488 17.6518 341.089C19.1452 344.921 20.9681 348.615 23.0997 352.13C22.157 357.52 22.6546 363.684 25.2046 368.52C26.0351 370.094 27.0528 371.63 27.3274 373.391C27.4533 374.583 27.4037 375.786 27.1803 376.964L25.9888 385.482C25.626 388.076 25.2631 390.671 24.7932 393.248C23.9333 397.963 22.7666 403.081 24.9394 407.349C27.5414 412.46 24.8085 419.01 25.4921 424.71C32.8162 421.866 40.49 420.034 48.3038 419.262C53.3344 418.767 58.4588 418.704 63.3123 417.285C66.3434 416.398 69.2179 414.995 72.2954 414.288C74.7912 413.796 77.3268 413.536 79.8701 413.511C85.4797 413.283 91.1289 413.058 96.6817 413.889C97.1314 413.956 97.6791 413.993 97.9482 413.624C98.0682 413.424 98.1269 413.193 98.1169 412.959C98.2023 410.867 97.7051 408.793 96.6814 406.969C95.9736 405.713 94.99 404.485 95.0172 403.042C95.0684 402.369 95.2329 401.709 95.5035 401.092L97.9639 394.496C100.041 388.929 99.0525 382.462 100.131 376.615C100.974 372.045 101.515 367.424 101.748 362.782C101.948 358.815 101.824 354.518 99.4421 351.348C98.7457 350.584 98.1416 349.74 97.6425 348.833C97.3006 347.869 97.1549 346.846 97.214 345.825C97.1609 337.885 97.3776 329.95 97.864 322.02C95.787 318.27 93.6216 314.436 91.5446 310.687C89.1274 306.323 86.6765 301.87 85.7006 296.973C85.0546 293.731 85.077 290.393 84.6149 287.12C84.5664 286.289 84.2788 285.49 83.7872 284.819C82.994 283.916 81.6528 283.787 80.4548 283.825C78.9754 283.872 77.5114 284.142 76.1121 284.628Z" fill="#656565"/>
<path d="M83.9309 321.379C85.3558 323.164 86.8409 325 88.8621 326.055C91.1876 327.268 93.9269 327.296 96.5464 327.24C107.333 327.008 118.078 325.822 128.658 323.694C129.863 323.486 131.047 323.167 132.194 322.741C133.466 322.133 134.665 321.381 135.768 320.501C139.251 317.984 142.784 315.42 145.432 312.029C148.583 307.932 150.563 303.05 151.16 297.908C153.679 295.575 155.017 292.259 156.278 289.058C156.901 287.7 157.295 286.248 157.445 284.76C157.512 283.238 156.509 281.642 156.786 280.145C157.272 277.562 158.575 275.206 160.501 273.428C160.909 273.136 161.218 272.723 161.385 272.248C161.436 271.852 161.363 271.45 161.174 271.098C160.096 268.684 157.631 267.128 155.076 266.496C152.487 265.994 149.838 265.889 147.218 266.182C146.345 266.349 145.485 266.578 144.644 266.869L142.814 271.715C142.568 272.525 142.161 273.277 141.618 273.925C141.21 274.297 140.776 274.638 140.318 274.946C139.389 275.739 138.668 276.75 138.219 277.888C137.77 279.027 137.606 280.259 137.742 281.477C136.087 282.122 134.739 283.377 133.972 284.987C133.205 286.596 133.077 288.438 133.614 290.139C132.237 290.436 130.959 291.083 129.902 292.018C128.845 292.953 128.045 294.145 127.577 295.48C127.447 296.089 127.177 296.658 126.789 297.143C126.185 297.603 125.438 297.834 124.681 297.794C122.613 297.923 120.804 299.56 118.929 298.672C116.8 297.669 114.419 297.334 112.097 297.712C111.62 297.825 111.129 297.869 110.639 297.842C110.22 297.77 109.816 297.628 109.443 297.423C108.599 296.929 107.685 296.567 106.732 296.351C106.253 296.25 105.755 296.291 105.299 296.468C104.842 296.646 104.446 296.952 104.159 297.35C103.502 296.626 103.111 295.699 102.513 294.926C102.248 294.514 101.874 294.184 101.434 293.973C100.993 293.762 100.503 293.677 100.017 293.729C100.64 293.171 100.003 292.061 99.1926 291.858C98.362 291.789 97.5262 291.819 96.7027 291.948C94.5376 291.937 92.8763 289.961 90.7732 289.444C88.8401 288.968 86.2637 289.535 85.2727 287.8C84.9214 287.185 84.8527 286.351 84.2547 285.975C83.8497 285.775 83.3885 285.721 82.9487 285.823C81.5758 286.006 80.2418 286.413 78.9989 287.028C76.9718 294.997 78.0353 303.274 79.5799 311.352C80.1442 315.016 81.6432 318.47 83.9309 321.379Z" fill="#656565"/>
<path d="M72.16 278.722C69.6486 277.151 66.692 276.485 63.7818 275.951C62.0346 275.551 60.2371 275.421 58.451 275.565C56.803 275.772 55.2213 276.411 53.5631 276.504C51.2358 276.635 49.0044 275.686 46.7561 275.067C44.5078 274.449 41.9108 274.212 40.0179 275.58C39.615 275.978 39.1054 276.251 38.5512 276.363C37.9765 276.293 37.4422 276.029 37.0352 275.615C35.4425 274.47 33.5097 273.902 31.5538 274.006C29.5979 274.109 27.7351 274.878 26.271 276.186C21.9789 280.231 22.4647 288.135 17.4345 291.203C16.048 292.049 14.2755 292.496 13.466 293.909C13.27 294.359 13.0413 294.793 12.7816 295.21C12.4447 295.582 12.0323 295.877 11.5723 296.076C10.1128 296.731 8.72355 297.533 7.42613 298.471C6.77895 298.945 6.23386 299.545 5.82373 300.236C5.41361 300.927 5.14693 301.695 5.03978 302.492C5.02119 303.661 5.272 304.818 5.77258 305.874C8.234 311.942 12.5044 317.095 17.9972 320.625C23.4899 324.156 29.9354 325.89 36.4483 325.59C37.6047 325.649 38.7444 325.292 39.6617 324.582C40.1456 324.033 40.5272 323.401 40.788 322.717C43.1527 317.733 47.5941 314.054 50.4144 309.316C52.0952 306.492 53.1741 303.334 54.9239 300.552C57.5763 296.336 61.6101 293.221 65.5584 290.198C67.7849 288.494 70.2637 286.705 73.0608 286.825C75.5537 286.931 77.367 287.066 76.4531 283.993C75.6915 281.779 74.1693 279.91 72.16 278.722Z" fill="#656565"/>
<path d="M84.343 619.752C82.6472 621.342 80.3146 622.039 78.0514 622.533C72.8828 623.547 67.6503 624.197 62.3918 624.479C60.6897 624.606 58.9813 624.739 57.2792 624.872C52.2862 625.252 47.287 625.638 42.2752 625.657C36.0891 625.678 29.9136 625.142 23.8229 624.054C23.5791 624.078 23.3333 624.043 23.1052 623.954C22.877 623.865 22.6729 623.723 22.5092 623.54C22.3455 623.357 22.2268 623.138 22.1626 622.9C22.0985 622.663 22.0906 622.413 22.1397 622.172C22.248 615.904 23.0086 609.665 24.4091 603.556C24.9892 601.046 29.4651 606.673 29.6669 606.908C30.9088 608.327 31.8481 608.98 33.733 609.081C38.8836 609.366 44.6519 606.217 48.7433 603.416C49.6194 602.761 50.5495 602.183 51.5234 601.686C52.2389 601.364 52.9969 601.146 53.774 601.04C56.424 600.795 59.0873 601.337 61.4336 602.599C64.51 604.132 67.2083 606.337 70.2531 607.915C72.7291 609.194 75.4016 610.044 78.1585 610.431C80.9451 610.817 84.2736 611.001 85.7047 613.428C85.7071 613.43 85.7089 613.433 85.71 613.437C85.7111 613.44 85.7114 613.443 85.711 613.447C86.8836 615.456 86.0324 618.168 84.343 619.752Z" fill="#2F2E41"/>
<path d="M84.3429 620.679C82.6471 622.27 80.3146 622.967 78.0514 623.461C72.8828 624.474 67.6502 625.124 62.3918 625.406C60.6897 625.533 58.9813 625.666 57.2792 625.799C52.2862 626.179 47.287 626.566 42.2752 626.585C36.0891 626.606 29.9136 626.069 23.8229 624.982C23.5437 624.971 23.2697 624.902 23.0181 624.78C22.7665 624.658 22.5425 624.485 22.3602 624.272C21.8793 623.632 21.4942 622.924 21.217 622.172C21.3242 615.912 23.0096 609.658 24.4091 603.556C24.9892 601.046 29.4651 606.673 29.6669 606.908C30.9087 608.327 31.8481 608.98 33.733 609.081C38.8835 609.366 44.6519 606.217 48.7433 603.416C49.6194 602.761 50.5494 602.183 51.5234 601.686C52.2389 601.364 52.9969 601.146 53.774 601.04C53.112 604.766 47.7977 609.265 45.0553 610.633C39.5077 613.403 32.9135 612.021 26.7228 612.344C26.2696 612.332 25.8214 612.442 25.4241 612.661C24.6803 613.155 24.6361 614.214 24.6614 615.107C24.7118 616.59 24.9008 618.332 26.1806 619.086C26.8208 619.395 27.5261 619.543 28.2358 619.517C43.4914 620.189 58.7759 619.65 73.9474 617.908C76.499 617.736 79.0097 617.174 81.3926 616.241C82.9497 615.508 84.402 614.568 85.711 613.447C87.6597 614.986 86.0324 619.095 84.3429 620.679Z" fill="#B3B3B3"/>
<path d="M71.5959 245.855C71.5077 248.288 73.1594 253.009 68.633 251.691C65.9348 250.905 65.172 247.692 61.7488 248.408C58.2941 249.137 57.5376 253.363 56.3777 256.139C55.4327 258.344 53.9678 260.286 52.1093 261.795C50.2509 263.304 48.0549 264.336 45.711 264.801C44.7444 265.027 43.7389 265.025 42.7733 264.795C40.5668 264.161 39.306 261.873 38.4045 259.751C37.6239 257.955 36.977 256.104 36.4692 254.213C36.1174 252.882 35.8832 251.523 35.7693 250.151V250.145C35.6927 249.211 35.6885 248.272 35.7567 247.338C36.1666 241.806 39.2997 236.762 43.3092 232.947C47.3186 229.133 52.1917 226.376 57.0018 223.658C58.5727 222.673 60.2722 221.911 62.0515 221.396C63.8065 221.04 65.6065 220.965 67.3849 221.174C69.7262 221.275 72.0276 221.819 74.1682 222.777C75.0458 223.213 75.8516 223.781 76.5574 224.463C77.5619 225.398 78.2793 226.603 78.6251 227.935C79.4952 231.509 77.2256 234.728 75.3848 237.554C73.7456 240.063 71.7157 242.725 71.5959 245.855Z" fill="#2F2E41"/>
<path d="M76.4881 232.086C76.0649 232.775 75.6018 233.44 75.1012 234.075C74.1453 235.289 73.0726 236.406 71.8986 237.408C71.2075 238.013 70.4858 238.582 69.7363 239.113C68.3472 240.096 66.8869 240.972 65.3675 241.736C60.942 243.979 56.1508 245.386 51.3848 246.774C48.2706 247.686 45.1543 248.596 42.0358 249.505C38.7765 251.982 27.8577 260.112 26.0232 259.098C23.8609 257.9 35.71 249.469 35.71 249.469L36.2548 249.885C34.5212 248.789 33.6134 246.248 33.2226 244.049C32.5291 240.114 32.2012 236.027 33.128 232.136C34.0547 228.252 36.381 224.552 39.9239 222.733C41.4936 221.922 43.3975 221.371 44.5323 220.122C44.7043 219.938 44.8545 219.733 44.9799 219.514C45.0485 219.412 45.1076 219.304 45.1564 219.191C45.2816 218.848 45.4489 218.522 45.6544 218.221C46.3037 217.467 47.4826 217.695 48.4661 217.816C48.5732 217.828 48.6741 217.841 48.7813 217.848C48.9572 217.865 49.1339 217.874 49.3107 217.873C52.8222 217.949 56.2265 215.985 59.7821 215.985C63.678 215.978 66.994 218.247 70.4235 219.793C71.1169 220.11 71.7726 220.395 72.3904 220.686C74.8679 221.846 76.7339 223.081 77.7553 226.376C78.3478 228.303 77.5345 230.375 76.4881 232.086Z" fill="#656565"/>
<path opacity="0.1" d="M35.9436 249.376C36.4368 249.685 36.9868 249.891 37.5609 249.981C38.284 250.192 39.0441 250.244 39.7889 250.131C40.5336 250.019 41.2454 249.746 41.8751 249.331L35.9436 249.376Z" fill="#696969"/>
</g>
<defs>
<linearGradient id="paint0_linear" x1="52.8787" y1="601.65" x2="52.8787" y2="594.4" gradientUnits="userSpaceOnUse">
<stop stop-color="#CECECE" stop-opacity="0.25"/>
<stop offset="0.53514" stop-color="#808080" stop-opacity="0.12"/>
<stop offset="1" stop-color="#808080" stop-opacity="0.1"/>
</linearGradient>
<clipPath id="clip0">
<rect width="636.36" height="626.585" fill="white"/>
</clipPath>
</defs>
</svg>
